<svg xmlns="http://www.w3.org/2000/svg" width="171.88" height="39.295" viewBox="0 0 171.88 39.295">
  <g id="sitename" transform="translate(-72.253 -651.496)">
    <path id="パス_231" data-name="パス 231" d="M8.811-7.458a3.671,3.671,0,0,1-.572.594l1,.484a.3.3,0,0,0,.132.044c.044,0,.077-.022.143-.1a6.543,6.543,0,0,0,.99-1.386.246.246,0,0,0,.033-.11.188.188,0,0,0-.088-.132l-.583-.506-.913.044H5.94c.11-.165.209-.341.308-.517l-.022-.11L4.983-9.5l-.088.022A5.794,5.794,0,0,1,3.047-7.513l.836.814c.066.066.11.088.154.088a.215.215,0,0,0,.143-.055,5.588,5.588,0,0,0,.935-.792H5.9a3.214,3.214,0,0,1-2.772,1.54c.066-.044.121-.088.187-.132A.187.187,0,0,0,3.4-6.193a.246.246,0,0,0-.033-.11L2.86-7.381A12.919,12.919,0,0,1,.286-6.061l-.033.11L.88-4.73l.1.022A14.849,14.849,0,0,0,3.014-5.841l.594.792h-.2L2.035-5.082l-.077.088.033,1.243v1.672L1.925-.627,2-.55,3.476-.583h.066A14.8,14.8,0,0,1,.363-.044l.814,1a.282.282,0,0,0,.33.121A15.118,15.118,0,0,0,4.972.242l.011-.1L4.037-.583h2.9L6.226.132l.033.1a20.447,20.447,0,0,1,3.4.858l.11-.044.847-.913-.033-.1A17.8,17.8,0,0,0,7.975-.572L9.009-.55l.077-.088L9.053-2.079V-3.751L9.086-4.8c.231.055.462.11.715.154a1.026,1.026,0,0,0,.154.022.229.229,0,0,0,.209-.132l.693-1.067C9.35-6,8.074-6.259,7.293-7.172a2.171,2.171,0,0,0,.077-.286ZM7.634-5.049H4.862A3.77,3.77,0,0,0,6.655-6.105,4.376,4.376,0,0,0,8.239-5.06ZM3.509-1.837H7.48v.363H3.509Zm0-.792v-.363H7.48v.363Zm0-1.155v-.363H7.48v.363Zm-.418-4.73-.033-.11a11,11,0,0,0-1.584-.693l-.121.033-.693,1,.033.1a9.67,9.67,0,0,1,1.551.77h.11ZM17.886-4.708h.451l1.232.033.066-.055v-.616c.495.308.99.594,1.5.869a.4.4,0,0,0,.176.055c.1,0,.2-.066.319-.209l.957-1.111a11.141,11.141,0,0,1-4.62-2.937c.066-.088.121-.176.176-.264l-.033-.11-1.562-.418-.121.033a9.892,9.892,0,0,1-4.6,4.081l.99.99a.264.264,0,0,0,.187.1.5.5,0,0,0,.209-.066c.517-.286,1-.594,1.463-.913v.506l.077.066,1.221-.033h.352v.77H14.641l-1.562-.033-.066.066V-2.7l.077.066,1.551-.033h1.683V-.649h-1.54l1.023-.407.033-.11A7.785,7.785,0,0,0,15.1-2.5l-.121-.044-1.155.429-.033.1a8.241,8.241,0,0,1,.638,1.364h-.7L12.276-.682l-.066.066V.605l.077.066L13.728.638h6.886l1.452.033.066-.055V-.627l-.066-.055-1.452.033h-.847A10.694,10.694,0,0,0,20.658-2l-.033-.121-1.364-.495-.1.055a10.874,10.874,0,0,1-.77,1.584l.8.33H17.886V-2.662h1.76l1.562.033.066-.055V-3.916l-.066-.055-1.562.033h-1.76Zm.451-1.265H15.972l-.352-.011A10.763,10.763,0,0,0,17.1-7.5a11.11,11.11,0,0,0,1.617,1.518Zm13.75,3.212.011-.748-.066-.077-.825.022h-.935l-.792-.022-.055.077.022.748v1.078l-.033,1.5H30.47v-.6h.836l.715.033.088-.077-.022-.814Zm-1.034.154v.847H30.47v-.847Zm-.858-2.508-.726-.011-.066.055V-4.1l.077.055,1.089-.033h.506l1.1.033.055-.066v-.968l-.077-.044-.781.011v-.616l.737.022.055-.066v-.946l-.077-.044-.715.011v-.7l-.066-.088H30.272l-.077.077v.715l-.671-.011-.066.055v.946l.077.055.66-.022Zm-4.3,5.5V.748h1.331L27.214.363l.748.627c.066.055.11.088.154.088s.1-.044.143-.121c.7-1.177.957-2.882.957-5.467V-7.744h3.2V-.649c0,.176-.055.22-.22.231-.231.022-.528.033-.836.033L31.8.858c.044.11.055.132.242.132C33.33.99,33.836.726,33.836-.4L33.8-2.508V-7.282L33.825-8.9l-.066-.077-1.606.033H29.4l-1.5-.033-.066.077.022,1.617V-4.2a9.072,9.072,0,0,1-.649,4.191l-.022-1.056V-1.54l.033-1.1-.077-.077-1.364.033h-.528l-1.265-.033-.066.077.033,1.1v.55L23.9.99h1.309V.385Zm0-1.078h-.682v-.9h.682ZM24.838-6.248h1.375l1.309.033.066-.055V-7.447L27.522-7.5l-1.309.033H24.838L23.562-7.5l-.066.066v1.155l.077.066Zm.451-1.639h.572L27-7.854l.066-.055v-1.1L27-9.064l-1.144.033h-.572l-1.144-.033L24.079-9V-7.92l.077.066Zm0,3.2h.572L27-4.653l.066-.055v-1.1L27-5.863l-1.144.033h-.572l-1.144-.033-.066.066v1.078l.077.066Zm0,1.562h.572L27-3.091l.066-.055v-1.1L27-4.3l-1.144.033h-.572L24.145-4.3l-.066.066v1.078l.077.066ZM45.87-.66c-1.892.143-4.158.242-5.522.187-1.133-.055-2.046-.22-2.387-.957V-3.377l.033-1.65L37.917-5.1,36.5-5.071h-.187L35.387-5.1l-.066.066v1.254l.077.066.913-.033h.2v2.42c-.44.242-.847.484-1.353.8l-.033.1L35.9.858,36,.9c.44-.407.88-.792,1.287-1.144A3.355,3.355,0,0,0,39.82.836c.693.055,1.584.077,2.552.077.847,0,1.771-.022,2.684-.055.121,0,.154,0,.2-.11ZM44.022-6.182l1.529.033.066-.055V-7.227l-.066-.055-1.529.033H42.559v-.429h.88l1.353.033.066-.055V-8.734l-.066-.055-1.353.033h-.88v-.55l-.088-.077H41.118l-.077.088v.539H40.15L38.8-8.789l-.066.066v1.012l.077.066,1.342-.033h.891v.429H39.732L38.2-7.282l-.066.066v1l.077.066,1.463-.033c.077.231.154.473.22.715L38.5-5.5l-.066.066v.99l.077.066,1.463-.033h1.078v.429h-.8l-1.364-.033-.066.066v.99l.077.066,1.353-.033h.8v.44H39.7L38.28-2.519l-.066.066v1.034l.077.066L39.7-1.386h1.309l-.022.693h1.628l-.022-.693h1.573l1.408.033.066-.055V-2.464l-.066-.055-1.408.033H42.559v-.44h.935l1.353.033.066-.055V-3.96l-.066-.055-1.353.033h-.935v-.429h1.232l1.474.033.066-.055V-5.445L45.265-5.5l-1.474.033h-.033c.1-.231.176-.473.253-.715Zm-1.474,0c-.066.242-.132.484-.209.715H41.327c-.055-.242-.121-.484-.2-.715ZM38.115-7.59l.011-.121a8.123,8.123,0,0,0-1.573-1.364L36.421-9.1l-.957.781-.011.088a8.2,8.2,0,0,1,1.518,1.507h.143ZM52.855.363a.359.359,0,0,0,.352.11c2.332-.55,3.74-2.068,3.74-4.07a4.278,4.278,0,0,0-4.609-4.455,4.765,4.765,0,0,0-5.016,4.818,3.486,3.486,0,0,0,.539,1.991,1.755,1.755,0,0,0,1.551.979A2.3,2.3,0,0,0,51.48-1.452a11.94,11.94,0,0,0,1.694-5.126A2.778,2.778,0,0,1,55.22-3.619c0,1.32-1.067,2.453-3.432,2.849ZM51.436-6.622a10.993,10.993,0,0,1-1.089,3.74c-.3.594-.616.847-.869.847-.176,0-.33-.143-.451-.363a1.623,1.623,0,0,1-.187-.836A3.24,3.24,0,0,1,51.436-6.622ZM65.791-4.576h.792v3.014l-.055,2.64H68.1l-.055-2.64v-3l.858.022.066-.077V-5.775L68.9-5.852l-1.133.033h-1.98v-1.4a15.731,15.731,0,0,0,3.124-.8v-.11a6.926,6.926,0,0,0-1-.979h-.1a9.676,9.676,0,0,1-2.354.693L64.394-8.6l-.077.077L64.35-6.7V-3.96c0,2.123-.264,3.069-1.331,4.268l1.012.7a.292.292,0,0,0,.154.066c.055,0,.1-.044.165-.11,1.056-1.232,1.441-2.453,1.441-5.247ZM62.227-2.508H62.7l1.287.033.066-.055V-3.674l-.066-.055L62.7-3.7h-.473v-.616l-.066-.055H60.852l-.055.055V-3.7H60.2L58.96-3.729l-.066.066v1.122l.077.066L60.2-2.508h.231A9.276,9.276,0,0,1,58.476-.583l.748.913c.066.077.11.11.165.11a.366.366,0,0,0,.176-.088,7.308,7.308,0,0,0,1.276-1.43l-.11,2.145H62.3l-.066-2.288a9.625,9.625,0,0,1,.781.847h.11l.77-.836-.011-.11a8.108,8.108,0,0,0-1.133-.935l-.11.022-.418.407Zm.011-5.753V-9.306l-.066-.088H60.841l-.077.077v1.056h-.352L59.07-8.294l-.077.077V-7.15l.077.077,1.342-.033H62.5l1.386.033.077-.077V-8.228l-.077-.066L62.5-8.261Zm.891,2.475c.1-.275.187-.572.275-.847l-.077-.088-1.166-.264-.1.055c-.077.385-.165.77-.275,1.155h-.539A8.442,8.442,0,0,0,60.94-6.9l-.1-.088-1.1.231-.066.1c.077.242.165.561.231.88l-1.111-.033-.077.077V-4.62l.077.077,1.232-.033h2.739l1.276.033.077-.077V-5.731l-.077-.077Zm9.306-2.871c0,1.287-.055,2.255-.088,3.113-.033,1-.11,2.024-.11,3.553,0,1.859,1.133,2.64,2.794,2.64a5.5,5.5,0,0,0,4.5-2.739.257.257,0,0,0-.033-.352L78.54-3.718a4.586,4.586,0,0,1-3.63,2.695c-.66,0-1.034-.352-1.034-1.144,0-.858.066-2.09.11-3.047.055-1.133.11-2.068.165-3.432l-.088-.077-1.551-.011ZM82.852-7.8c-.055,1.2-.077,2.255-.077,3.146a8.257,8.257,0,0,0,.638,3.421,2.106,2.106,0,0,0,1.782,1.4c.891,0,1.606-.825,2.046-1.969a.231.231,0,0,0-.033-.275l-1.1-1.386c-.253,1.012-.627,1.606-.924,1.606-.242,0-.385-.319-.506-.748a7.914,7.914,0,0,1-.253-2.178c0-.638.033-1.727.132-2.948L84.48-7.81l-1.551-.055Zm5.269,1.947a7.469,7.469,0,0,1,2.574,3.52l.11.033,1.4-.869.033-.1A8.309,8.309,0,0,0,89.32-6.82L89.2-6.8l-1.056.847Zm12.815.462a17.431,17.431,0,0,1-.308,2.706c-.209.88-.429.946-.77.957-.4.011-.792,0-1.221-.022l.649,1.54c.077.176.088.2.374.2,1.991,0,2.31-.66,2.651-2.112a33.629,33.629,0,0,0,.473-4.73l-.077-.1-1.353.033H99.517c.033-.506.044-1.067.044-1.683l-.077-.077h-1.65l-.077.088c0,.627-.022,1.177-.044,1.672h-1.2l-1.54-.033-.1.066v1.441l.077.088,1.573-.033h1.012A6.026,6.026,0,0,1,96.954-3.6a6.4,6.4,0,0,1-3.08,2.761l1.243.924c.11.077.154.11.209.11a.3.3,0,0,0,.132-.055,7.351,7.351,0,0,0,3.135-3.08,7.3,7.3,0,0,0,.77-2.453Zm12.529-2.2-.9.066-1.507.022c.132-.231.264-.462.385-.7l-.022-.121-1.5-.539-.11.033a11.923,11.923,0,0,1-3.564,4.51l1.2.77c.2.132.253.143.462-.011a16.634,16.634,0,0,0,2.244-2.541l2.134-.011a9.28,9.28,0,0,1-.979,1.727c-.374-.253-.77-.495-1.177-.737l-.121.011-.935,1.023v.11a14.139,14.139,0,0,1,1.232.847,13.222,13.222,0,0,1-4.235,2.772l1.287.88a.441.441,0,0,0,.253.11.486.486,0,0,0,.209-.077,13.621,13.621,0,0,0,3.707-2.629c.33.319.649.638.968.99l.1-.011,1.067-1.188v-.121a14.148,14.148,0,0,0-1.045-.968,17.247,17.247,0,0,0,1.738-2.992.412.412,0,0,0,.055-.187c0-.066-.044-.11-.121-.2Zm9.768,2.233V-6.831a15.219,15.219,0,0,0,2.035-.572l.022-.121L124.234-8.69l-.121-.022a23,23,0,0,1-5.984,1.2l.891,1.133c.1.121.121.132.374.11.693-.077,1.386-.154,2.068-.253v1.166H119.4l-1.463-.033-.1.066v1.408l.077.088,1.463-.033h1.991a4.363,4.363,0,0,1-.528,1.584,5.083,5.083,0,0,1-2.3,1.782L120.01.33a.41.41,0,0,0,.2.077.526.526,0,0,0,.22-.088,6.233,6.233,0,0,0,2.024-1.958,5.919,5.919,0,0,0,.693-2.222h1.628l1.485.033.077-.088V-5.324l-.1-.066-1.441.033Zm5.984,3.3a1.538,1.538,0,0,0-1.562,1.551,1.538,1.538,0,0,0,1.562,1.551,1.531,1.531,0,0,0,1.562-1.551A1.531,1.531,0,0,0,129.217-2.057Zm0,.638a.891.891,0,0,1,.913.913.891.891,0,0,1-.913.913.9.9,0,0,1-.913-.913A.9.9,0,0,1,129.217-1.419Z" transform="translate(72 661)" fill="#454545"/>
    <path id="パス_232" data-name="パス 232" d="M4.888-13.084V-2.75H7.938A3.3,3.3,0,0,0,11.2-5.06a8.146,8.146,0,0,0,.5-3.019,7.431,7.431,0,0,0-.757-3.711q-.757-1.294-3.013-1.294ZM8.5-15.834a8.322,8.322,0,0,1,2.449.344,5.227,5.227,0,0,1,2.7,2.009,7.046,7.046,0,0,1,1.128,2.557,12.273,12.273,0,0,1,.3,2.621A10.524,10.524,0,0,1,13.8-2.954,5.719,5.719,0,0,1,8.5,0H1.676V-15.834Zm11.967,2.729h-3.1v-2.825h3.1Zm-3.1,1.4h3.1V0h-3.1Zm11.1,9.2a2.365,2.365,0,0,0,1.815-.811,3.755,3.755,0,0,0,.741-2.583,3.953,3.953,0,0,0-.7-2.535,2.3,2.3,0,0,0-1.885-.87A2.222,2.222,0,0,0,26.2-7.8a5.371,5.371,0,0,0-.322,1.987A4.535,4.535,0,0,0,26.222-4,2.241,2.241,0,0,0,28.456-2.514Zm-.763-9.475a4.033,4.033,0,0,1,1.536.269,3.678,3.678,0,0,1,1.8,1.7v-1.687H34.01V-.6a6.221,6.221,0,0,1-.763,3.416Q31.937,4.791,28.22,4.791a6.85,6.85,0,0,1-3.663-.881,3.25,3.25,0,0,1-1.568-2.632h3.33a1.379,1.379,0,0,0,.419.773,2.587,2.587,0,0,0,1.665.419,2.237,2.237,0,0,0,2.213-1.106,5.6,5.6,0,0,0,.365-2.385v-.752a3.733,3.733,0,0,1-.945,1.128,3.8,3.8,0,0,1-2.374.7,4.493,4.493,0,0,1-3.6-1.584,6.406,6.406,0,0,1-1.348-4.292,7.234,7.234,0,0,1,1.3-4.388A4.294,4.294,0,0,1,27.693-11.988Zm12.321-1.117h-3.1v-2.825h3.1Zm-3.1,1.4h3.1V0h-3.1Zm4.866,2.288V-11.6h1.633v-3.266h3.029V-11.6h1.9v2.181h-1.9v6.188a1.394,1.394,0,0,0,.183.9,2.011,2.011,0,0,0,1.117.177q.14,0,.3-.005t.306-.016V.107L46.89.161a3.892,3.892,0,0,1-2.965-.752,2.239,2.239,0,0,1-.516-1.622V-9.421ZM56.762-5.693a3.327,3.327,0,0,1-.585.3,4.9,4.9,0,0,1-.811.209l-.687.129a4.439,4.439,0,0,0-1.386.419,1.4,1.4,0,0,0-.709,1.3,1.369,1.369,0,0,0,.435,1.133,1.637,1.637,0,0,0,1.058.349,3.118,3.118,0,0,0,1.821-.58,2.474,2.474,0,0,0,.865-2.116ZM54.9-7.122a4.779,4.779,0,0,0,1.214-.269.92.92,0,0,0,.655-.87,1.032,1.032,0,0,0-.5-.994,3.12,3.12,0,0,0-1.466-.274,1.91,1.91,0,0,0-1.536.537,2.232,2.232,0,0,0-.43,1.074H49.887a4.493,4.493,0,0,1,.859-2.524q1.214-1.547,4.168-1.547a7.405,7.405,0,0,1,3.416.763,2.928,2.928,0,0,1,1.493,2.879v5.371q0,.559.021,1.354a1.7,1.7,0,0,0,.183.816,1.1,1.1,0,0,0,.451.354V0h-3.33a3.41,3.41,0,0,1-.193-.666q-.054-.312-.086-.709A6.29,6.29,0,0,1,55.408-.2a4.394,4.394,0,0,1-2.234.569,3.842,3.842,0,0,1-2.626-.908,3.238,3.238,0,0,1-1.037-2.573,3.339,3.339,0,0,1,1.665-3.126,7.393,7.393,0,0,1,2.686-.752ZM65.667,0H62.605V-15.834h3.062Zm9.346-15.812H86.238v2.782H78.3v3.642h6.95v2.75H78.3V0H75.013ZM94.66-5.693a3.327,3.327,0,0,1-.585.3,4.9,4.9,0,0,1-.811.209l-.687.129a4.439,4.439,0,0,0-1.386.419,1.4,1.4,0,0,0-.709,1.3,1.369,1.369,0,0,0,.435,1.133,1.637,1.637,0,0,0,1.058.349,3.118,3.118,0,0,0,1.821-.58,2.474,2.474,0,0,0,.865-2.116ZM92.8-7.122a4.779,4.779,0,0,0,1.214-.269.92.92,0,0,0,.655-.87,1.032,1.032,0,0,0-.5-.994,3.12,3.12,0,0,0-1.466-.274,1.91,1.91,0,0,0-1.536.537,2.232,2.232,0,0,0-.43,1.074H87.785a4.493,4.493,0,0,1,.859-2.524q1.214-1.547,4.168-1.547a7.405,7.405,0,0,1,3.416.763,2.928,2.928,0,0,1,1.493,2.879v5.371q0,.559.021,1.354a1.7,1.7,0,0,0,.183.816,1.1,1.1,0,0,0,.451.354V0h-3.33a3.41,3.41,0,0,1-.193-.666q-.054-.312-.086-.709A6.29,6.29,0,0,1,93.307-.2a4.394,4.394,0,0,1-2.234.569,3.842,3.842,0,0,1-2.626-.908,3.238,3.238,0,0,1-1.037-2.573,3.339,3.339,0,0,1,1.665-3.126,7.393,7.393,0,0,1,2.686-.752Zm14.631-.387a2.717,2.717,0,0,0-.44-1.182,1.847,1.847,0,0,0-1.6-.709,2.108,2.108,0,0,0-2.116,1.536,6.422,6.422,0,0,0-.3,2.17,5.905,5.905,0,0,0,.3,2.073,2.043,2.043,0,0,0,2.063,1.461,1.819,1.819,0,0,0,1.525-.58,2.887,2.887,0,0,0,.548-1.5h3.126a5.122,5.122,0,0,1-1.01,2.643A4.908,4.908,0,0,1,105.263.408a4.989,4.989,0,0,1-4.157-1.676,6.781,6.781,0,0,1-1.332-4.351,6.881,6.881,0,0,1,1.472-4.694,5.123,5.123,0,0,1,4.061-1.676,6.114,6.114,0,0,1,3.6.988,4.6,4.6,0,0,1,1.66,3.491Zm4.039-1.912V-11.6H113.1v-3.266h3.029V-11.6h1.9v2.181h-1.9v6.188a1.394,1.394,0,0,0,.183.9,2.011,2.011,0,0,0,1.117.177q.14,0,.3-.005t.306-.016V.107l-1.45.054a3.892,3.892,0,0,1-2.965-.752,2.239,2.239,0,0,1-.516-1.622V-9.421Zm13.782,7.262a2.426,2.426,0,0,0,2.063-.956,4.448,4.448,0,0,0,.72-2.718,4.423,4.423,0,0,0-.72-2.712,2.432,2.432,0,0,0-2.062-.951,2.446,2.446,0,0,0-2.068.951,4.4,4.4,0,0,0-.725,2.712,4.423,4.423,0,0,0,.725,2.718A2.441,2.441,0,0,0,125.254-2.159Zm5.994-3.674a6.788,6.788,0,0,1-1.482,4.41,5.447,5.447,0,0,1-4.5,1.832,5.447,5.447,0,0,1-4.5-1.832,6.788,6.788,0,0,1-1.482-4.41,6.833,6.833,0,0,1,1.482-4.394,5.409,5.409,0,0,1,4.5-1.858,5.409,5.409,0,0,1,4.5,1.858A6.833,6.833,0,0,1,131.248-5.833Zm8.551-6.155q.086,0,.145.005t.263.016V-8.83q-.29-.032-.516-.043t-.365-.011a2.539,2.539,0,0,0-2.481,1.2A4.68,4.68,0,0,0,136.49-5.6V0h-3.083V-11.709h2.922v2.041a6.473,6.473,0,0,1,1.235-1.6A3.363,3.363,0,0,1,139.8-11.988Zm5.35-1.117h-3.1v-2.825h3.1Zm-3.1,1.4h3.1V0h-3.1Zm12.558-.279a4.52,4.52,0,0,1,2.97.951,3.866,3.866,0,0,1,1.155,3.153V0H155.59V-7.122a3.25,3.25,0,0,0-.247-1.418,1.738,1.738,0,0,0-1.719-.9,2.132,2.132,0,0,0-2.138,1.321,4.539,4.539,0,0,0-.3,1.783V0h-3.051V-11.687h2.954v1.708a5.2,5.2,0,0,1,1.117-1.3A3.883,3.883,0,0,1,154.6-11.988Zm11.978,9.475a2.365,2.365,0,0,0,1.815-.811,3.755,3.755,0,0,0,.741-2.583,3.953,3.953,0,0,0-.7-2.535,2.3,2.3,0,0,0-1.885-.87A2.222,2.222,0,0,0,164.323-7.8,5.371,5.371,0,0,0,164-5.812,4.535,4.535,0,0,0,164.345-4,2.241,2.241,0,0,0,166.579-2.514Zm-.763-9.475a4.033,4.033,0,0,1,1.536.269,3.678,3.678,0,0,1,1.8,1.7v-1.687h2.976V-.6a6.221,6.221,0,0,1-.763,3.416q-1.311,1.977-5.027,1.977a6.85,6.85,0,0,1-3.663-.881,3.25,3.25,0,0,1-1.568-2.632h3.33a1.379,1.379,0,0,0,.419.773,2.587,2.587,0,0,0,1.665.419,2.237,2.237,0,0,0,2.213-1.106,5.6,5.6,0,0,0,.365-2.385v-.752a3.733,3.733,0,0,1-.945,1.128,3.8,3.8,0,0,1-2.374.7,4.493,4.493,0,0,1-3.6-1.584,6.406,6.406,0,0,1-1.348-4.292,7.234,7.234,0,0,1,1.3-4.388A4.294,4.294,0,0,1,165.816-11.988Z" transform="translate(72 686)" fill="#005fce"/>
  </g>
</svg>
