<svg xmlns="http://www.w3.org/2000/svg" width="565.278" height="186.732" viewBox="0 0 565.278 186.732">
  <g id="txt-maincopy" transform="translate(-113.376 -175.696)">
    <path id="パス_235" data-name="パス 235" d="M68.886-58.308a28.7,28.7,0,0,1-4.472,4.644L72.24-49.88a2.329,2.329,0,0,0,1.032.344c.344,0,.6-.172,1.118-.774a51.156,51.156,0,0,0,7.74-10.836,1.923,1.923,0,0,0,.258-.86,1.473,1.473,0,0,0-.688-1.032l-4.558-3.956L70-66.65H46.44c.86-1.29,1.634-2.666,2.408-4.042l-.172-.86L38.958-74.3l-.688.172A45.3,45.3,0,0,1,23.822-58.738l6.536,6.364c.516.516.86.688,1.2.688a1.677,1.677,0,0,0,1.118-.43,43.689,43.689,0,0,0,7.31-6.192H46.1C42.4-49.88,32.766-47.3,24.424-46.268c.516-.344.946-.688,1.462-1.032a1.464,1.464,0,0,0,.688-1.118,1.923,1.923,0,0,0-.258-.86L22.36-57.706A101,101,0,0,1,2.236-47.386l-.258.86,4.9,9.546.774.172a116.1,116.1,0,0,0,15.91-8.858l4.644,6.192H26.66l-10.75-.258-.6.688.258,9.718v13.072L15.05-4.9l.6.6,11.524-.258h.516A115.7,115.7,0,0,1,2.838-.344L9.2,7.482a2.209,2.209,0,0,0,2.58.946,118.2,118.2,0,0,0,27.09-6.536l.086-.774-7.4-5.676h22.7l-5.59,5.59.258.774A159.855,159.855,0,0,1,75.508,8.514l.86-.344L82.99,1.032,82.732.258A139.126,139.126,0,0,0,62.35-4.472l8.084.172.6-.688-.258-11.266V-29.326l.258-8.17c1.806.43,3.612.86,5.59,1.2a8.017,8.017,0,0,0,1.2.172,1.793,1.793,0,0,0,1.634-1.032l5.418-8.342C73.1-46.87,63.124-48.934,57.018-56.072a16.971,16.971,0,0,0,.6-2.236Zm-9.2,18.834H38.012A29.475,29.475,0,0,0,52.03-47.73a34.21,34.21,0,0,0,12.384,8.17ZM27.434-14.362H58.48v2.838H27.434Zm0-6.192v-2.838H58.48v2.838Zm0-9.03v-2.838H58.48v2.838Zm-3.268-36.98-.258-.86a86,86,0,0,0-12.384-5.418l-.946.258L5.16-64.758l.258.774a75.6,75.6,0,0,1,12.126,6.02h.86Zm115.67,29.756h3.526l9.632.258.516-.43V-41.8c3.87,2.408,7.74,4.644,11.7,6.794a3.161,3.161,0,0,0,1.376.43c.774,0,1.548-.516,2.494-1.634l7.482-8.686a87.1,87.1,0,0,1-36.12-22.962c.516-.688.946-1.376,1.376-2.064l-.258-.86-12.212-3.268-.946.258c-8.256,14.448-19.78,24.08-35.948,31.906l7.74,7.74a2.064,2.064,0,0,0,1.462.774,3.867,3.867,0,0,0,1.634-.516c4.042-2.236,7.826-4.644,11.438-7.138v3.956l.6.516,9.546-.258h2.752v6.02H114.466l-12.212-.258-.516.516v9.46l.6.516,12.126-.258h13.158V-5.074h-12.04l8-3.182.258-.86a60.867,60.867,0,0,0-5.762-10.406l-.946-.344-9.03,3.354-.258.774a64.43,64.43,0,0,1,4.988,10.664h-5.5L95.976-5.332l-.516.516V4.73l.6.516,11.266-.258h53.836l11.352.258.516-.43V-4.9l-.516-.43-11.352.258h-6.622a83.6,83.6,0,0,0,6.966-10.578l-.258-.946-10.664-3.87-.774.43a85.013,85.013,0,0,1-6.02,12.384l6.278,2.58H139.836V-20.812H153.6l12.212.258.516-.43v-9.632l-.516-.43-12.212.258h-13.76Zm3.526-9.89h-18.49l-2.752-.086a84.15,84.15,0,0,0,11.61-11.868,86.857,86.857,0,0,0,12.642,11.868Zm107.5,25.112.086-5.848-.516-.6-6.45.172h-7.31l-6.192-.172-.43.6.172,5.848v8.428l-.258,11.7h8.256v-4.73h6.536l5.59.258.688-.6-.172-6.364Zm-8.084,1.2v6.622H238.22v-6.622ZM236.07-39.99l-5.676-.086-.516.43v7.568l.6.43,8.514-.258h3.956l8.6.258.43-.516v-7.568l-.6-.344-6.106.086v-4.816l5.762.172.43-.516v-7.4l-.6-.344-5.59.086v-5.5L244.756-59h-8.084l-.6.6v5.59l-5.246-.086-.516.43v7.4l.6.43,5.16-.172Zm-33.626,43V5.848H212.85l-.086-3.01,5.848,4.9c.516.43.86.688,1.2.688.43,0,.774-.344,1.118-.946,5.5-9.2,7.482-22.532,7.482-42.742V-60.544h25.026v55.47c0,1.376-.43,1.72-1.72,1.806-1.806.172-4.128.258-6.536.258l3.44,9.718c.344.86.43,1.032,1.892,1.032,10.062,0,14.018-2.064,14.018-10.836l-.258-16.512V-56.932l.172-12.642-.516-.6-12.556.258h-21.5l-11.7-.258-.516.6.172,12.642v24.08c0,16.168-1.2,24.854-5.074,32.766l-.172-8.256v-3.7l.258-8.6-.6-.6-10.664.258h-4.128l-9.89-.258-.516.6.258,8.6v4.3l-.43,15.48h10.234V3.01Zm0-8.428h-5.332V-12.47h5.332Zm-8.256-43.43h10.75l10.234.258.516-.43v-9.2l-.516-.43-10.234.258h-10.75l-9.976-.258-.516.516v9.03l.6.516Zm3.526-12.814h4.472l8.944.258.516-.43v-8.6l-.516-.43-8.944.258h-4.472l-8.944-.258-.516.516v8.428l.6.516Zm0,25.026h4.472l8.944.258.516-.43v-8.6l-.516-.43-8.944.258h-4.472l-8.944-.258-.516.516v8.428l.6.516Zm0,12.212h4.472l8.944.258.516-.43v-8.6l-.516-.43-8.944.258h-4.472l-8.944-.258-.516.516v8.428l.6.516ZM358.62-5.16C343.828-4.042,326.112-3.268,315.448-3.7c-8.858-.43-16-1.72-18.662-7.482V-26.4l.258-12.9-.6-.6-11.094.258h-1.462l-7.224-.258-.516.516v9.8l.6.516,7.138-.258h1.548v18.92c-3.44,1.892-6.622,3.784-10.578,6.278l-.258.774L280.7,6.708l.774.344c3.44-3.182,6.88-6.192,10.062-8.944,5.16,6.278,12.47,7.912,19.78,8.428,5.418.43,12.384.6,19.952.6,6.622,0,13.846-.172,20.984-.43.946,0,1.2,0,1.548-.86ZM344.172-48.332l11.954.258.516-.43v-8l-.516-.43-11.954.258H332.734v-3.354h6.88l10.578.258.516-.43v-8.084l-.516-.43-10.578.258h-6.88v-4.3l-.688-.6H321.468l-.6.688v4.214H313.9l-10.578-.258-.516.516v7.912l.6.516,10.492-.258h6.966v3.354H310.632l-11.954-.258-.516.516v7.826l.6.516,11.438-.258c.6,1.806,1.2,3.7,1.72,5.59L301-43l-.516.516v7.74l.6.516,11.438-.258h8.428v3.354h-6.278L304.01-31.39l-.516.516v7.74l.6.516,10.578-.258h6.278v3.44H310.374l-11.094-.258-.516.516v8.084l.6.516,11.008-.258h10.234l-.172,5.418h12.728l-.172-5.418h12.3l11.008.258.516-.43v-8.256l-.516-.43-11.008.258H332.734v-3.44h7.31l10.578.258.516-.43V-30.96l-.516-.43-10.578.258h-7.31v-3.354h9.632l11.524.258.516-.43V-42.57L353.89-43l-11.524.258h-.258c.774-1.806,1.376-3.7,1.978-5.59Zm-11.524,0c-.516,1.892-1.032,3.784-1.634,5.59H323.1c-.43-1.892-.946-3.784-1.548-5.59ZM297.99-59.34l.086-.946a63.5,63.5,0,0,0-12.3-10.664l-1.032-.172-7.482,6.106-.086.688a64.148,64.148,0,0,1,11.868,11.782h1.118Z" transform="translate(112 250)" fill="#005fce"/>
    <path id="パス_234" data-name="パス 234" d="M48.59,2.838a2.808,2.808,0,0,0,2.752.86c18.232-4.3,29.24-16.168,29.24-31.82,0-19.092-12.556-34.83-36.034-34.83C20.9-62.952,5.332-46.1,5.332-25.284c0,6.966,1.72,11.7,4.214,15.566,3.268,5.16,6.966,7.654,12.126,7.654,6.708,0,11.524-2.494,16.168-9.288,5.934-8.686,11.524-23.822,13.244-40.076,8.772,1.806,16,10.062,16,23.134,0,10.32-8.342,19.178-26.832,22.274ZM37.5-51.772a85.943,85.943,0,0,1-8.514,29.24c-2.322,4.644-4.816,6.622-6.794,6.622-1.376,0-2.58-1.118-3.526-2.838A12.687,12.687,0,0,1,17.2-25.284C17.2-38.528,24.94-49.622,37.5-51.772Z" transform="translate(477 250)"/>
    <path id="パス_233" data-name="パス 233" d="M58.566-35.776h6.192v23.564l-.43,20.64h12.3l-.43-20.64V-35.69l6.708.172.516-.6v-9.03l-.516-.6-8.858.258H58.566V-56.416A122.988,122.988,0,0,0,82.99-62.694v-.86a54.145,54.145,0,0,0-7.826-7.654H74.39a75.65,75.65,0,0,1-18.4,5.418l-8.342-1.462-.6.6L47.3-52.374V-30.96c0,16.6-2.064,23.994-10.406,33.368l7.912,5.5a2.286,2.286,0,0,0,1.2.516c.43,0,.774-.344,1.29-.86C55.556-2.064,58.566-11.61,58.566-33.454ZM30.7-19.608h3.7l10.062.258.516-.43v-8.944l-.516-.43L34.4-28.9H30.7v-4.816l-.516-.43H19.952l-.43.43V-28.9H14.878L5.16-29.154l-.516.516v8.772l.6.516,9.632-.258h1.806A72.52,72.52,0,0,1,1.376-4.558L7.224,2.58c.516.6.86.86,1.29.86A2.861,2.861,0,0,0,9.89,2.752a57.132,57.132,0,0,0,9.976-11.18l-.86,16.77H31.3L30.788-9.546a75.257,75.257,0,0,1,6.106,6.622h.86l6.02-6.536-.086-.86a63.389,63.389,0,0,0-8.858-7.31l-.86.172L30.7-14.276Zm.086-44.978v-8.17l-.516-.688H19.866l-.6.6v8.256H16.512L6.02-64.844l-.6.6V-55.9l.6.6,10.492-.258h16.34l10.836.258.6-.6v-8.428l-.6-.516-10.836.258Zm6.966,19.35c.774-2.15,1.462-4.472,2.15-6.622l-.6-.688L30.186-54.61l-.774.43c-.6,3.01-1.29,6.02-2.15,9.03H23.048a66,66,0,0,0-2.408-8.772l-.774-.688-8.6,1.806-.516.774c.6,1.892,1.29,4.386,1.806,6.88L3.87-45.408l-.6.6v8.686l.6.6,9.632-.258H34.916l9.976.258.6-.6v-8.686l-.6-.6ZM110.51-67.682c0,10.062-.43,17.63-.688,24.338-.258,7.826-.86,15.824-.86,27.778,0,14.534,8.858,20.64,21.844,20.64,13.158,0,26.66-7.912,35.174-21.414a2.006,2.006,0,0,0-.258-2.752l-7.482-9.976C150.93-15.738,139.75-8,129.86-8c-5.16,0-8.084-2.752-8.084-8.944,0-6.708.516-16.34.86-23.822.43-8.858.86-16.168,1.29-26.832l-.688-.6-12.126-.086Zm81.442,6.708c-.43,9.374-.6,17.63-.6,24.6,0,11.7,2.322,21.328,4.988,26.746C199.778-2.666,204.68,1.29,210.27,1.29c6.966,0,12.556-6.45,16-15.394a1.808,1.808,0,0,0-.258-2.15l-8.6-10.836c-1.978,7.912-4.9,12.556-7.224,12.556-1.892,0-3.01-2.494-3.956-5.848A61.874,61.874,0,0,1,204.25-37.41c0-4.988.258-13.5,1.032-23.048l-.6-.6-12.126-.43Zm41.194,15.222c8.944,6.278,15.48,15.652,20.124,27.52l.86.258,10.922-6.794.258-.774A64.959,64.959,0,0,0,242.52-53.32l-.946.172-8.256,6.622Zm100.19,3.612c-.344,7.654-1.29,16.426-2.408,21.156-1.634,6.88-3.354,7.4-6.02,7.482-3.1.086-6.192,0-9.546-.172l5.074,12.04c.6,1.376.688,1.548,2.924,1.548,15.566,0,18.06-5.16,20.726-16.512,1.634-6.88,3.1-23.134,3.7-36.98l-.6-.774-10.578.258H322.242c.258-3.956.344-8.342.344-13.158l-.6-.6h-12.9l-.6.688c0,4.9-.172,9.2-.344,13.072h-9.374l-12.04-.258-.774.516V-42.57l.6.688,12.3-.258h7.912A47.11,47.11,0,0,1,302.2-28.122c-5.074,9.632-12.814,16-24.08,21.586L287.842.688c.86.6,1.2.86,1.634.86a2.384,2.384,0,0,0,1.032-.43c10.234-5.676,18.4-12.642,24.51-24.08a57.109,57.109,0,0,0,6.02-19.178Zm97.954-17.2-7.052.516-11.782.172c1.032-1.806,2.064-3.612,3.01-5.5l-.172-.946-11.7-4.214-.86.258A93.215,93.215,0,0,1,374.874-33.8l9.374,6.02c1.548,1.032,1.978,1.118,3.612-.086A130.047,130.047,0,0,0,405.4-47.73l16.684-.086a72.554,72.554,0,0,1-7.654,13.5c-2.924-1.978-6.02-3.87-9.2-5.762l-.946.086-7.31,8v.86a110.55,110.55,0,0,1,9.632,6.622c-8.256,8.342-19.264,15.738-33.11,21.672l10.062,6.88a3.446,3.446,0,0,0,1.978.86,3.8,3.8,0,0,0,1.634-.6c11.782-5.934,21.156-12.556,28.982-20.554,2.58,2.494,5.074,4.988,7.568,7.74L424.5-8.6l8.342-9.288v-.946a110.612,110.612,0,0,0-8.17-7.568,134.843,134.843,0,0,0,13.588-23.392,3.224,3.224,0,0,0,.43-1.462c0-.516-.344-.86-.946-1.548Zm76.368,17.458V-53.406a118.982,118.982,0,0,0,15.91-4.472l.172-.946-8.256-9.116-.946-.172c-13.158,4.9-28.466,7.74-46.784,9.374l6.966,8.858c.774.946.946,1.032,2.924.86,5.418-.6,10.836-1.2,16.168-1.978v9.116H477.73l-11.438-.258-.774.516v11.008l.6.688,11.438-.258h15.566C492.264-24.94,490.8-20.64,489-17.8c-3.784,5.676-9.03,9.8-17.974,13.932L482.46,2.58a3.2,3.2,0,0,0,1.548.6,4.11,4.11,0,0,0,1.72-.688,48.728,48.728,0,0,0,15.824-15.308c2.236-3.44,4.214-9.374,5.418-17.372H519.7l11.61.258.6-.688V-41.624l-.774-.516-11.266.258Zm46.784,25.8A12.023,12.023,0,0,0,542.23-3.956,12.023,12.023,0,0,0,554.442,8.17,11.971,11.971,0,0,0,566.654-3.956,11.971,11.971,0,0,0,554.442-16.082Zm0,4.988a6.963,6.963,0,0,1,7.138,7.138,6.963,6.963,0,0,1-7.138,7.138A7.014,7.014,0,0,1,547.3-3.956,7.014,7.014,0,0,1,554.442-11.094Z" transform="translate(112 354)"/>
  </g>
</svg>
